PathFileType	4	(X/Y/Z)	60_2_107_p1_0-180_filt_butterworth.trc
DataRate	CameraRate	NumFrames	NumMarkers	Units	OrigDataRate	OrigDataStartFrame	OrigNumFrames
51.0	51.0	5	27	m	51.0	112	180
Frame#	Time	RHip			RKnee			RAnkle			RBigToe			RSmallToe			RHeel			LHip			LKnee			LAnkle			LBigToe			LSmallToe			LHeel			Neck			Head			Nose			RShoulder			RElbow			RWrist			RThumb			RIndex			RPinky			LShoulder			LElbow			LWrist			LThumb			LIndex			LPinky			
		X1	Y1	Z1	X2	Y2	Z2	X3	Y3	Z3	X4	Y4	Z4	X5	Y5	Z5	X6	Y6	Z6	X7	Y7	Z7	X8	Y8	Z8	X9	Y9	Z9	X10	Y10	Z10	X11	Y11	Z11	X12	Y12	Z12	X13	Y13	Z13	X14	Y14	Z14	X15	Y15	Z15	X16	Y16	Z16	X17	Y17	Z17	X18	Y18	Z18	X19	Y19	Z19	X20	Y20	Z20	X21	Y21	Z21	X22	Y22	Z22	X23	Y23	Z23	X24	Y24	Z24	X25	Y25	Z25	X26	Y26	Z26	X27	Y27	Z27	
112	2.196078431372549	0.3274854776519961	0.47932031179749657	-0.2085297520697984	0.29571006658949595	0.6165181455975983	0.19580837776904347	0.2759902847600736	0.8653635057287851	0.5784741392575414	0.27890661474145156	0.6431958862838284	0.6942198388873462	0.33465381190660204	0.6883215075480222	0.6846621302789186	0.2649194651441233	0.880299291495963	0.615944755616678	0.10814393669466851	0.48966228246652177	-0.20876871902778754	0.11644500090338797	0.6427065536337414	0.1979402017434846	0.12404817360525192	0.8068982250430529	0.579348268730045	0.11860044933053725	0.6213804351061551	0.6835195732724744	0.060814349476115914	0.6820431283651267	0.6720724051680433	0.1423479757084557	0.871994722523863	0.6185339980475649	0.2224942978671052	0.30546009878239744	-0.7589087324733272	0.24100281602769097	0.17978325477467788	-0.9819027849030748	0.23385516401608025	0.14357605883664595	-0.8450770307568667	0.3851693743838368	0.30136144605612225	-0.6566095010193315	0.4281569463937678	0.44874011466636116	-0.4064531631062163	0.41368373601373154	0.4254172531324527	-0.1439677379763579	0.36969087324200633	0.4448238495394681	-0.017050999097974195	0.3803604276569809	0.47242543670482096	0.01423510986198874	0.42046364739456976	0.4941476912001861	-0.0061970420117448384	0.07662254671752645	0.3312411896420001	-0.6747126894308821	0.007429294908738261	0.4334026816426739	-0.40934757451822706	-0.0017227820927601767	0.4905477983579575	-0.14756799537365362	0.0574879681899806	0.45082968695375586	-0.03724824751659317	0.027071554387584046	0.4729135939637814	-0.012882000222927507	-0.009154832898726695	0.5461112108551694	-0.03354630584987543
113	2.215686274509804	0.32844901971789026	0.4845143110043275	-0.20882054188434382	0.2973510838919016	0.6168949356285102	0.19584778976295364	0.27573162329885004	0.8644220527298525	0.5784789704386671	0.27900854565129074	0.6430761189908778	0.6950730355922369	0.33551982648068224	0.6893631516651618	0.6851190698508635	0.264978620782243	0.8813510114699983	0.6161464803309453	0.10816187073433853	0.48972231526637	-0.2087585721998531	0.11641776390536436	0.6425860396591646	0.19692880870946558	0.12420522290908823	0.8069330553953081	0.5784212176405332	0.11861177063949514	0.6213632188034302	0.6835191681414803	0.06108181915203712	0.6820532655534143	0.6719615077585275	0.1425520123778808	0.8724776147573917	0.6187369376941626	0.22358275311290535	0.305311410288814	-0.7599005164841913	0.24100925053756972	0.17996438691943115	-0.981746073026116	0.23412884157494263	0.14440632072068482	-0.8453585263180515	0.38655009928531403	0.3046972335480274	-0.6573382490677697	0.4284017574550357	0.4477043553713934	-0.40633163631762326	0.41482273637985356	0.4288299530035001	-0.14412095842025716	0.36965089578104404	0.44487697837280077	-0.01702659911877325	0.3819128996463992	0.47207515869774275	0.014248321966772268	0.42075016394102627	0.49380495971374777	-0.006549502921024516	0.07661597816048835	0.33117863825673505	-0.6747058311046787	0.00924983048578589	0.4375279400489222	-0.4098484287250734	-0.003499511471060302	0.49003603778322147	-0.14906668899114134	0.05631758480941958	0.45511845036357385	-0.038268068688233126	0.022952660302489613	0.4826517785953588	-0.012706642452684484	-0.009482740658743757	0.5471951952413053	-0.03414535184655263
114	2.235294117647059	0.3298569620755136	0.4880087940362179	-0.20903349764517598	0.29848785344967577	0.6174733095636921	0.19591250214765646	0.27496785857108286	0.861117359228591	0.5787188823610034	0.27905540839331555	0.642961464011178	0.6949251653386168	0.33670440526733164	0.6927473367905419	0.685037184082579	0.264732784072032	0.8811808481301582	0.6165079828247502	0.10818493127319975	0.48977281203810324	-0.20874093172950797	0.11638682687250938	0.6425210368266043	0.19669977488892046	0.12413157738652779	0.80724309721274	0.579413483007099	0.11862681404754186	0.6213761547619223	0.6835095524200766	0.06155547614702092	0.6820298556250054	0.6717329089193962	0.1428661003473516	0.8733733926126068	0.6197514808075664	0.2238630598276105	0.30527378480025796	-0.7601553632514801	0.24103808065485033	0.18006620596547268	-0.9815345791076787	0.23405909088767624	0.14410594743591945	-0.8452966578660177	0.38793104682536916	0.30922396958867676	-0.6583070484730243	0.429302986756051	0.4437890311975538	-0.4058256701381235	0.41643387599738196	0.4336909388038264	-0.14432536363719753	0.36939987922249423	0.4449644332698685	-0.01636568970401559	0.38290977302389584	0.4661925512359717	0.014241742911079752	0.4207499040556819	0.4936714200497898	-0.006577928406709673	0.07655447710622004	0.33084554436464075	-0.6746345128382747	0.010992480339325521	0.4391736252974979	-0.41006135494110835	-0.003915730269704647	0.48899062629730916	-0.15220953885981736	0.05458274681026463	0.4601833788771459	-0.03894644940992536	0.019678652166451926	0.4922347524819496	-0.012785994418860556	-0.009389961312792926	0.5469383310106801	-0.03394050455447156
115	2.2549019607843137	0.3308757746561641	0.48881217189952486	-0.20909243953731266	0.2987790258591226	0.6179203151150897	0.19595445964938918	0.2738977382181882	0.8564390304118713	0.5791501729967139	0.2789328034467532	0.6428300694149236	0.6935539342237742	0.33742366570079096	0.697252134269406	0.684060898789634	0.2641652911821917	0.8778574412655137	0.6164646958721166	0.1082123941974553	0.48980393307247283	-0.20872997210684788	0.11636902605422303	0.6425099275022945	0.19683218891372592	0.12379609118735867	0.8078283989087793	0.5815333340107092	0.1186361176775075	0.6214132178005464	0.6834939497086534	0.061811045821716586	0.68194418092331	0.6715848378295862	0.1432171483732873	0.8746907504838082	0.621225530149351	0.22376366984257134	0.30526985317375066	-0.7600871182942941	0.2411442676524128	0.18017123107946728	-0.9806045639917653	0.23398185904531382	0.14383774000071234	-0.8452317185471945	0.38888309714847413	0.31229680959698725	-0.6589348919947104	0.4305755950489294	0.43820351176808864	-0.4051155101661812	0.4175698996016182	0.43712543891907446	-0.14446830118391335	0.36925513362783596	0.44498428499452847	-0.015519850586984785	0.3831025973081018	0.45823592410552105	0.014196746458550739	0.4208649539133395	0.4940315733560383	-0.006571020684513672	0.07648977595816539	0.3304887477652195	-0.6745505443943078	0.012006111196501157	0.43929229644934403	-0.41008478916064056	-0.003689044376112448	0.48779559970816244	-0.15567027220113264	0.05341296297577188	0.462988468310523	-0.04001521513896652	0.018126462749657457	0.49707276129707684	-0.0136130287174899	-0.009726026937221379	0.5460537491993062	-0.03374402838649549
116	2.2745098039215685	0.3311205368182568	0.48838797447151117	-0.20909489497552997	0.2987072713400364	0.618097249550241	0.1959420882746624	0.27313262547375455	0.8531541379640132	0.5794645766336135	0.2787385696024475	0.6427324019530767	0.6925727459276246	0.3374991633961919	0.7004119722045845	0.683012422592528	0.2633418256715069	0.8724003605205849	0.6155022240308723	0.10824297578111652	0.4897957122923971	-0.20873644864118604	0.11635760433161556	0.6425063544364475	0.1969284861025381	0.12335801357497785	0.808628758544326	0.5831574794769402	0.11863428530045686	0.6214010823568326	0.683485086154044	0.06150585792478003	0.6818586689395632	0.6716877566372896	0.14338025453896563	0.8760203986916169	0.6222666696979093	0.2236830610164982	0.30524982134650525	-0.7600960466606458	0.2412499332022221	0.18028873010799895	-0.9795456454676341	0.23397156420115164	0.1438077207258157	-0.8452368052064124	0.38920829132846	0.3127967126471837	-0.6589720851967402	0.4314631893398345	0.4343078653095176	-0.404640514739798	0.4179071767542283	0.4381073817202872	-0.14452721064225274	0.3693531240520344	0.4447518283845049	-0.015174837583550621	0.3829847588760102	0.45352465608220394	0.01413248393163579	0.4209054719867453	0.4945575461478224	-0.006479434183803893	0.07669006352030794	0.3313753818584587	-0.6747293342573814	0.012215403933195167	0.43906818980962087	-0.4100488624982555	-0.0034142863953804314	0.48719828836126944	-0.1574049947795506	0.053307715322691726	0.46310895630243387	-0.041455738913015794	0.018064941502493527	0.497507472778326	-0.014996712872810817	-0.010935256281314138	0.5448867560044469	-0.03371124449506001
